<?xml version="1.0" encoding="UTF-8"?>
<svg id="Camada_2" xmlns="http://www.w3.org/2000/svg" viewBox="0 0 4914.25 837.67">
  <defs>
    <style>
      .cls-1 {
        fill: #fff;
      }

      .cls-2 {
        isolation: isolate;
      }
    </style>
  </defs>
  <g id="Camada_1-2" data-name="Camada_1">
    <g>
      <g class="cls-2">
        <path class="cls-1" d="M482.89,296.73c10.94,0,16.42,5.84,16.42,17.53v498.22c0,12.41-5.48,18.61-16.42,18.61s-16.42-6.2-16.42-18.61v-123.73c-18.98,47.45-48.38,84.14-88.16,110.05-39.78,25.92-82.67,38.88-128.66,38.88-31.41,0-61.88-6.22-91.44-18.61-29.56-12.41-56.22-29.94-79.94-52.56s-42.7-51.47-56.94-86.52C7.11,644.95,0,606.27,0,563.92c0-84.67,24.27-151.47,72.81-200.38,48.53-48.91,107.48-73.38,176.84-73.38,48.17,0,91.78,12.42,130.84,37.23s67.72,60.58,85.97,107.3v-119.34c0-12.41,5.47-18.62,16.42-18.62ZM252.94,807.02c57.66,0,108.03-21.89,151.11-65.7,43.06-43.8,64.61-102.92,64.61-177.39s-21-134.5-62.97-177.94-92.89-65.16-152.75-65.16-114.25,21.72-156.59,65.16-63.5,102.75-63.5,177.94,21.89,133.59,65.7,177.39c43.8,43.81,95.27,65.7,154.39,65.7Z"/>
        <path class="cls-1" d="M951.54,300.03c4.38,0,8.2,1.64,11.48,4.92s4.94,7.48,4.94,12.59v497.12c0,5.12-1.66,9.14-4.94,12.05s-7.12,4.38-11.5,4.38-8.03-1.47-10.95-4.38-4.38-6.92-4.38-12.05v-116.06c-7.3,22.62-16.78,42.7-28.47,60.22-11.69,17.53-25.19,31.94-40.52,43.25s-32.48,20.08-51.45,26.28c-18.98,6.2-39.8,9.31-62.42,9.31-35.05,0-65.53-6.77-91.44-20.25-25.91-13.5-46.53-35.95-61.86-67.34-15.34-31.39-23-70.45-23-117.17v-315.36c0-11.67,5.47-17.52,16.42-17.52,4.38,0,8.22,1.64,11.5,4.92s4.94,7.48,4.94,12.59v315.36c0,116.81,49.27,175.2,147.81,175.2,54.75,0,98-20.25,129.75-60.77s47.64-94,47.64-160.44v-269.36c0-11.67,5.47-17.52,16.44-17.52Z"/>
        <path class="cls-1" d="M1491.36,0c10.94,0,16.42,6.2,16.42,18.61v794.97c0,12.41-5.48,18.61-16.42,18.61s-16.42-6.2-16.42-18.61v-123.73c-12.42,31.39-30.31,58.41-53.67,81.03s-49.09,39.42-77.19,50.38c-28.11,10.94-56.77,16.42-85.95,16.42-31.41,0-61.88-6.22-91.44-18.61-29.56-12.41-56.22-29.94-79.94-52.56s-42.7-51.47-56.94-86.52c-14.23-35.03-21.34-73.72-21.34-116.06,0-84.67,24.27-151.47,72.81-200.38,48.53-48.91,107.48-73.38,176.84-73.38,31.38,0,60.94,5.3,88.69,15.88,27.73,10.59,52.92,26.83,75.55,48.73s40.16,47.81,52.58,77.73V18.61c0-12.41,5.47-18.61,16.42-18.61ZM1260.31,807.02c58.39,0,109.12-21.89,152.2-65.7,43.06-43.8,64.61-102.92,64.61-177.39s-21-134.5-62.97-177.94-93.25-65.16-153.84-65.16-113.16,21.72-155.5,65.16-63.5,102.75-63.5,177.94,21.89,133.59,65.7,177.39c43.8,43.81,94.89,65.7,153.3,65.7Z"/>
        <path class="cls-1" d="M1615.08,110.59c-7.3,0-13.69-1.64-19.16-4.92-5.48-3.28-9.5-7.67-12.05-13.14-2.56-5.47-3.83-11.86-3.83-19.17,0-10.22,3.09-18.97,9.3-26.28,6.2-7.3,14.78-10.95,25.73-10.95s19.53,3.66,25.73,10.95c6.2,7.31,9.31,16.25,9.31,26.83s-3.11,19.34-9.31,26.28-14.78,10.41-25.73,10.41ZM1615.08,832.19c-10.95,0-16.42-5.83-16.42-17.52v-501.52c0-11.67,5.47-17.52,16.42-17.52s16.44,5.84,16.44,17.52v501.52c0,11.69-5.48,17.52-16.44,17.52Z"/>
        <path class="cls-1" d="M2135.2,528.88h-413.91c-1.47,10.95-2.19,21.91-2.19,32.86,0,73,21.7,132.31,65.14,177.94s97.64,68.44,162.62,68.44c55.47,0,108.03-18.61,157.67-55.84,1.45-1.47,3.45-3.11,6.02-4.94,2.56-1.81,4.56-3.45,6.03-4.92s3.28-2.73,5.47-3.83,4.02-2.02,5.48-2.75c1.45-.72,2.91-1.09,4.38-1.09,7.3,0,10.95,4.02,10.95,12.05,0,6.58-3.66,13.16-10.95,19.72-24.09,21.17-52.75,38.33-85.97,51.47-33.22,13.12-66.97,19.7-101.28,19.7-75.19,0-137.06-25.17-185.59-75.55-48.55-50.38-72.81-116.8-72.81-199.3s23.72-143.98,71.17-195.45c47.44-51.47,106.58-77.2,177.39-77.2,41.59,0,78.45,8.58,110.58,25.73s57.31,42.72,75.56,76.66,27.38,73.55,27.38,118.8c0,11.69-4.39,17.52-13.14,17.52ZM1934.82,319.73c-50.38,0-95.09,16.8-134.14,50.38-39.06,33.58-64.42,77.73-76.11,132.48h394.2c-.73-54.75-18.25-98.91-52.56-132.48s-78.11-50.38-131.39-50.38ZM1801.23,210.23c-8.77,0-13.14-3.64-13.14-10.95,0-3.64,1.09-6.92,3.28-9.86l107.31-168.62c6.56-10.22,14.05-15.33,22.45-15.33s15.88,5.11,22.44,15.33l106.22,166.44c1.45,3.66,2.19,6.95,2.19,9.86,0,8.03-4.39,12.05-13.14,12.05-5.84,0-11.31-2.92-16.42-8.77l-101.83-154.39-102.94,154.39c-5.11,6.58-10.58,9.86-16.42,9.86Z"/>
        <path class="cls-1" d="M2404.56,290.17c56.94,0,102,16.25,135.22,48.73s49.83,81.2,49.83,146.17v328.5c0,11.69-5.48,17.52-16.42,17.52s-16.42-5.83-16.42-17.52v-327.41c0-56.94-13.88-98.91-41.61-125.92-27.75-27-65.7-40.52-113.88-40.52-51.84,0-94.55,17.16-128.12,51.47-33.58,34.31-50.36,77.02-50.36,128.11v314.27c0,11.69-5.48,17.52-16.44,17.52s-16.42-5.83-16.42-17.52v-500.42c0-10.94,5.47-16.42,16.42-16.42s16.44,5.48,16.44,16.42v96.38c13.86-37.97,36.67-67.34,68.42-88.16,31.75-20.8,69.53-31.2,113.34-31.2Z"/>
        <path class="cls-1" d="M2892.93,837.67c-48.19,0-92.17-11.12-131.95-33.39s-71.55-54.39-95.27-96.36-35.58-89.97-35.58-144c0-81.03,24.45-146.91,73.36-197.64s111.69-76.11,188.34-76.11c47.44,0,87.95,8.03,121.55,24.09,10.22,5.11,15.33,11.67,15.33,19.7,0,8.77-4.02,13.14-12.05,13.14-1.47,0-7.67-2.19-18.62-6.56s-25.73-8.77-44.34-13.14c-18.62-4.38-38.88-6.58-60.77-6.58-65.7,0-120.45,22.27-164.25,66.8-43.81,44.53-65.7,103.3-65.7,176.3s22.27,133.59,66.8,177.39c44.53,43.81,100,65.7,166.44,65.7,24.81,0,46.72-2.36,65.7-7.11,18.97-4.75,33.39-9.5,43.25-14.25,9.84-4.75,15.5-7.12,16.97-7.12,8.03,0,12.05,4.39,12.05,13.14,0,5.84-4.75,12.06-14.23,18.62-12.41,7.31-30.48,13.7-54.2,19.17-23.73,5.45-48,8.2-72.81,8.2Z"/>
        <path class="cls-1" d="M3097.68,110.59c-7.3,0-13.69-1.64-19.16-4.92-5.48-3.28-9.5-7.67-12.05-13.14-2.56-5.47-3.83-11.86-3.83-19.17,0-10.22,3.09-18.97,9.3-26.28,6.2-7.3,14.78-10.95,25.73-10.95s19.53,3.66,25.73,10.95c6.2,7.31,9.31,16.25,9.31,26.83s-3.11,19.34-9.31,26.28-14.78,10.41-25.73,10.41ZM3097.68,832.19c-10.95,0-16.42-5.83-16.42-17.52v-501.52c0-11.67,5.47-17.52,16.42-17.52s16.44,5.84,16.44,17.52v501.52c0,11.69-5.48,17.52-16.44,17.52Z"/>
        <path class="cls-1" d="M3651.75,296.73c10.94,0,16.42,5.84,16.42,17.53v498.22c0,12.41-5.48,18.61-16.42,18.61s-16.42-6.2-16.42-18.61v-123.73c-18.98,47.45-48.38,84.14-88.16,110.05-39.78,25.92-82.67,38.88-128.66,38.88-31.41,0-61.88-6.22-91.44-18.61-29.56-12.41-56.22-29.94-79.94-52.56s-42.7-51.47-56.94-86.52c-14.23-35.03-21.34-73.72-21.34-116.06,0-84.67,24.27-151.47,72.81-200.38,48.53-48.91,107.48-73.38,176.84-73.38,48.17,0,91.78,12.42,130.84,37.23s67.72,60.58,85.97,107.3v-119.34c0-12.41,5.47-18.62,16.42-18.62ZM3421.79,807.02c57.66,0,108.03-21.89,151.11-65.7,43.06-43.8,64.61-102.92,64.61-177.39s-21-134.5-62.97-177.94-92.89-65.16-152.75-65.16-114.25,21.72-156.59,65.16-63.5,102.75-63.5,177.94,21.89,133.59,65.7,177.39c43.8,43.81,95.27,65.7,154.39,65.7Z"/>
      </g>
      <g class="cls-2">
        <path class="cls-1" d="M4003.21,837.67c-81.77,0-151.48-26.83-209.16-80.48s-86.5-118.8-86.5-195.45c0-50.38,13.31-96.36,39.97-137.97,26.64-41.61,62.59-74.28,107.86-98,45.25-23.72,94.53-35.59,147.83-35.59,81.75,0,151.47,26.11,209.14,78.3,57.66,52.19,86.5,116.61,86.5,193.27s-28.11,143.62-84.31,196.55c-56.22,52.94-126.66,79.39-211.33,79.39ZM4004.31,666.84c18.25,0,34.84-4.19,49.81-12.59,14.97-8.39,26.83-20.61,35.59-36.67,8.75-16.06,13.14-33.94,13.14-53.66,0-30.66-9.5-55.48-28.47-74.47-18.98-18.97-42.7-28.47-71.17-28.47-18.25,0-35.05,4.39-50.38,13.14-15.34,8.77-27.56,20.81-36.69,36.14-9.12,15.34-13.69,32.86-13.69,52.56,0,30.66,9.84,55.66,29.56,75s43.81,29.02,72.28,29.02Z"/>
        <path class="cls-1" d="M4709.48,290.17c64.23,0,114.42,18.25,150.56,54.75,36.12,36.5,54.2,90.53,54.2,162.06v220.09c0,34.31-9.31,60.95-27.92,79.94-18.62,18.98-45.45,28.47-80.48,28.47s-60.05-9.3-79.39-27.92c-19.34-18.61-29.02-45.44-29.02-80.48v-197.11c0-18.25-3.11-33.58-9.31-45.98s-14.42-21.34-24.64-26.83c-10.22-5.47-22.62-8.22-37.22-8.22-15.34,0-28.66,3.3-39.97,9.86-11.31,6.58-20.08,16.62-26.28,30.12-6.22,13.5-9.31,29.75-9.31,48.72h-1.09v189.44c0,34.31-9.31,60.95-27.92,79.94-18.62,18.98-45.45,28.47-80.48,28.47s-60.05-9.3-79.39-27.92c-19.34-18.61-29.02-45.44-29.02-80.48v-326.31c0-34.31,8.94-60.95,26.83-79.94,17.88-18.97,43.25-28.47,76.11-28.47,28.47,0,51.64,7.67,69.53,23,17.88,15.33,28.28,37.22,31.2,65.69,35.77-60.58,93.44-90.88,173.02-90.88Z"/>
      </g>
    </g>
  </g>
</svg>